<?xml version="1.0" encoding="utf-8"?>
<!-- Generator: Adobe Illustrator 25.0.0, SVG Export Plug-In . SVG Version: 6.00 Build 0)  -->
<svg version="1.1" id="Layer_1" xmlns="http://www.w3.org/2000/svg" xmlns:xlink="http://www.w3.org/1999/xlink" x="0px" y="0px"
	 viewBox="0 0 174.639 223.51" enable-background="new 0 0 174.639 223.51" xml:space="preserve">
<g>
	<path fill-rule="evenodd" clip-rule="evenodd" fill="#787878" d="M28.989,112.694c-5.95,13.817,0.388,17.915-3.997,24.879
		c-3.339,5.302-6.794,8.779-8.571,11.779s2.371,3.048,8.265,3.869c-0.378,2.712-2.087,5.406-3.711,7.026
		c0.589,1.767,2.168,3.035,4.938,3.711c-1.205,0.722-2.209,1.588-3.069,3.208c-1.242,2.342,4.85,0.245,3.723,8.707
		c-0.396,2.979,0.015,6.576,5.789,7.108c5.533,0.509,19.023-6.139,19.023-6.139c7.317,22.591,7.838,31.857,2.761,45.408
		l56.079,0.306l-7.346-16.705c12.213,4.066,24.403,3.69,32.254-6.6c-17.43-2.981-18.408-23.201-24.549-38.182
		C103.086,142.793,88.384,123.645,28.989,112.694L28.989,112.694z"/>
	<path fill-rule="evenodd" clip-rule="evenodd" fill="#787878" d="M106.83,0.952c57.906,13.988,82.826,63.225,56.729,111.864
		c-15.309,28.535-36.339,64.9,1.199,84.808c-25.199-6.293-35.657-21.381-39.056-35.755c-3.498-14.768,1.894-32.132,12.264-52.11
		c15.658-30.173,5.528-68.907-32.67-77.274C110.821,24.317,110.639,10.058,106.83,0.952L106.83,0.952z"/>
	<path fill-rule="evenodd" clip-rule="evenodd" fill="#787878" d="M0.744,103.771l22.027-17.79L38.04,87.35l18.707-13.816
		l4.599,3.72c6.314,5.107,14.366,4.021,20.756,1.213L58.064,67.059L36.762,82.792l-9.039-0.809L59.61,56.229
		c45.469-36.725,78.781-2.674,77.353,29.422c-0.503,11.301-5.31,22.36-15.413,30.004c-4.902,3.709-10.172,7.652-12.354,19.657
		C84.401,118.449,30.112,104.129,0.744,103.771L0.744,103.771z"/>
</g>
</svg>
